<?xml version="1.0" encoding="UTF-8"?>
<svg width="1211px" height="513px" viewBox="0 0 1211 513" version="1.1" xmlns="http://www.w3.org/2000/svg" xmlns:xlink="http://www.w3.org/1999/xlink">
    <!-- Generator: Sketch 61.2 (89653) - https://sketch.com -->
    <title>Group</title>
    <desc>Created with Sketch.</desc>
    <g id="Page-1" stroke="none" stroke-width="1" fill="none" fill-rule="evenodd">
        <g id="Group" transform="translate(0.884162, 0.692615)" fill="#E7490F" fill-rule="nonzero">
            <path d="M613.679027,26.9618777 C631.817577,26.515211 649.975548,26.1268052 668.114099,25.641298 C678.950621,25.3499936 689.787143,24.6897038 700.643085,24.6702835 C707.03236,24.6702835 713.421635,25.6607183 719.810911,26.1073849 C738.784534,27.4279646 757.194969,24.8450661 775.119896,18.475211 C781.606273,16.1641965 788.209172,14.183327 794.83149,12.2801386 C802.638447,10.0273849 810.620186,9.69724 818.543664,11.3673849 C829.962795,13.7755009 841.401345,15.0960806 853.131201,15.3485443 C865.521345,15.6010081 877.87265,17.3099936 890.243374,18.4169501 C893.098157,18.6694139 895.914099,19.1743415 898.768882,19.3879646 C911.547432,20.3395588 923.976418,24.1847762 936.988012,23.6215878 C941.105114,23.4468052 945.338737,24.9227472 949.397577,26.0879646 C950.679316,26.4569501 952.330041,28.1270951 952.504824,29.3699936 C953.378737,36.0505733 954.077867,42.7894139 954.349751,49.5282545 C954.582795,55.8010081 954.077867,62.093182 954.116708,68.3659357 C954.155548,73.9395588 954.563374,79.5326023 954.679896,85.1062255 C954.738157,88.6407183 954.660476,92.1946313 954.446853,95.7291241 C953.689461,107.692023 953.242795,119.713182 951.922215,131.61782 C950.446273,144.901298 948.057577,158.087675 946.23207,171.351733 C945.047432,180.013182 944.270621,188.752312 943.047143,197.413762 C942.775258,199.31695 941.804244,201.414341 940.483664,202.793182 C933.336998,210.308834 926.170911,217.863327 921.995548,227.515211 C920.441925,231.127385 918.130911,233.244197 914.635258,234.487095 C900.283664,239.575211 888.048882,248.256081 876.435548,257.752602 C871.036708,262.161008 865.15236,261.811443 859.326273,260.859849 C845.809751,258.665356 832.35149,256.082457 818.95149,253.208254 C811.746563,251.674052 804.716418,249.227095 797.589172,247.246226 C789.43265,244.974052 784.286273,239.47811 781.159606,231.904197 C780.576998,230.505936 780.499316,228.81637 780.557577,227.262747 C780.71294,223.495211 781.120766,219.941298 780.110911,215.998979 C779.042795,211.823617 780.266273,207.026805 780.635258,202.521298 C780.848882,199.880139 781.645114,197.238979 779.819606,194.850283 C779.664244,194.63666 779.644824,194.287095 779.644824,193.995791 C779.761345,187.159849 779.897287,180.323907 780.033229,173.468544 C780.05265,172.691733 780.402215,171.720718 780.05265,171.17695 C778.130041,168.108544 779.217577,164.865356 779.198157,161.661008 C779.178737,158.262457 778.654389,154.883327 778.576708,151.484776 C778.460186,146.765646 778.440766,142.027095 778.557287,137.288544 C778.596128,135.346515 779.295258,133.423907 779.353519,131.481878 C779.41178,129.714631 779.41178,127.733762 778.634969,126.25782 C778.304824,125.63637 775.954969,126.024776 774.517867,126.024776 C769.293809,126.005356 764.050331,126.335501 758.865114,125.966515 C751.699027,125.461588 744.53294,124.529414 737.405693,123.558399 C735.424824,123.286515 733.502215,122.393182 731.657287,121.57753 C729.734679,120.723037 728.414099,121.305646 728.142215,123.538979 C727.520766,128.510573 727.268302,133.540428 726.336128,138.434341 C724.491201,148.163907 722.490911,157.854631 720.179896,167.487095 C718.684534,173.701588 716.315258,179.702457 714.722795,185.89753 C713.305114,191.374052 709.867722,195.491153 706.527432,199.744197 C700.545983,207.33753 694.875258,215.105646 691.321345,224.194341 C689.63178,228.544486 686.835258,231.632312 682.601635,234.098689 C677.979606,236.778689 674.173229,240.81811 670.017287,244.274921 C668.949172,245.148834 667.764534,245.964486 666.948882,247.032602 C663.453229,251.693472 658.734099,251.984776 653.43236,251.479849 C637.760186,249.965066 622.670621,246.314052 608.590911,239.245066 C605.17294,237.536081 602.415258,234.428834 599.502215,231.787675 C598.803085,231.146805 598.589461,229.865066 598.317577,228.835791 C597.016418,223.805936 595.637577,218.814921 594.550041,213.726805 C593.656708,209.532023 592.646853,205.259559 592.626119,201.006515 C592.588592,192.267385 593.423664,183.528254 593.443085,174.769704 C593.462505,166.030573 592.782795,157.291443 592.666273,148.552312 C592.608012,144.163327 593.190621,139.774341 593.345983,135.365936 C593.656708,126.801588 594.045114,118.23724 594.103374,109.692312 C594.181056,94.6415878 593.948012,79.5908632 594.006273,64.5401386 C594.045114,53.8978197 594.297577,43.2555009 594.49178,32.613182 C594.588882,27.8357907 594.783085,27.5639067 599.521635,27.4279646 C604.260186,27.2920226 608.979316,27.3891241 613.717867,27.3891241 C613.679027,27.2337617 613.679027,27.0978197 613.679027,26.9618777 Z" id="Path"></path>
            <path d="M377.120476,453.178452 C376.965114,450.34309 376.596128,446.944539 376.673809,443.565409 C376.71265,441.914684 377.547722,440.28338 378.033229,438.652075 C378.479896,437.156713 379.373229,435.64193 379.276128,434.185409 C379.198447,433.175554 377.877867,431.56367 376.945693,431.427728 C374.362795,431.078162 371.663374,431.175264 369.080476,431.524829 C368.303664,431.62193 367.177287,433.194974 367.177287,434.107728 C367.196708,440.477583 367.546273,446.847438 367.623954,453.217293 C367.759896,462.985699 368.614389,473.14251 362.963085,481.687438 C359.700476,486.620191 358.321635,492.426858 354.554099,497.029467 C348.747432,504.098452 342.416418,509.924539 332.317867,509.147728 C327.423954,508.759322 322.491201,508.875843 317.636128,508.293235 C315.538737,508.040771 313.480186,506.759032 311.615838,505.613235 C304.37207,501.146568 299.03149,494.621351 293.360766,488.465119 C290.95265,485.84338 289.088302,482.736133 287.010331,479.82309 C286.796708,479.531785 286.544244,479.104539 286.602505,478.793814 C287.359896,473.861061 283.650621,470.714974 281.941635,466.753235 C280.815258,464.112075 279.863664,461.257293 279.630621,458.42193 C279.125693,452.421061 279.106273,446.381351 279.009172,440.361061 C278.989751,439.428887 279.319896,438.244249 279.941345,437.60338 C282.155258,435.311785 282.621345,432.748307 281.922215,429.777003 C281.708592,428.88367 281.339606,427.776713 281.669751,427.038742 C286.427722,416.1828 285.534389,404.375264 287.398737,393.033814 C288.078447,388.916713 287.670621,384.624829 287.651201,380.410626 C287.651201,379.517293 287.379316,378.468597 286.854969,377.769467 C284.194389,374.254394 281.359027,370.855843 278.717867,367.340771 C277.921635,366.272655 277.436128,364.932655 277.008882,363.650916 C276.348592,361.670046 276.25149,359.378452 275.202795,357.650046 C271.435258,351.377293 268.949461,344.929757 269.357287,337.414104 C269.609751,332.830916 268.949461,328.208887 268.910133,323.586858 C268.891201,322.40222 269.454389,321.06222 270.153519,320.071785 C271.745983,317.819032 272.542215,315.605119 272.037287,312.711496 C271.687722,310.711206 271.979027,308.34193 272.755838,306.438742 C275.144534,300.437872 277.59149,294.417583 282.330041,289.737293 C283.378737,288.688597 284.679896,287.853525 285.942215,287.057293 C294.953229,281.405988 304.896418,279.968887 315.363954,279.735843 C327.190911,279.48338 336.629172,284.590916 345.737287,291.232655 C352.476128,296.145988 357.894389,302.127438 362.050331,309.293525 C362.691201,310.381061 363.254389,311.721061 363.254389,312.944539 C363.31265,317.838452 363.118447,322.732365 363.021345,327.606858 C363.001925,328.636133 362.827143,329.72367 363.079606,330.694684 C364.905114,337.569467 363.914679,344.46367 363.642795,351.396713 C363.409751,357.319901 361.99207,362.738162 359.176128,367.826278 C355.796998,373.924249 352.243085,379.905699 348.708592,385.906568 C347.504534,387.965119 347.698737,388.819612 349.815548,388.955554 C358.088592,389.557583 366.361635,390.276133 374.654099,390.548017 C380.130621,390.7228 385.548882,389.965409 390.423374,386.994104 C392.598447,385.654104 392.81207,385.071496 390.831201,383.34309 C387.47149,380.371785 383.509751,377.866568 380.790911,374.370916 C376.693229,369.108017 371.857577,364.058742 370.750621,357.048017 C370.401056,354.853525 370.187432,352.54251 370.401056,350.348017 C371.119606,342.832365 371.39149,335.413814 370.362215,327.859322 C369.799027,323.800481 371.022505,319.489177 371.410911,315.294394 C372.090621,308.128307 373.119896,301.059322 377.101056,294.825409 C377.605983,294.048597 378.285693,293.388307 378.771201,292.611496 C379.761635,291.019032 380.713229,289.407148 381.567722,287.737003 C382.480476,285.989177 383.004824,284.008307 384.131201,282.454684 C387.374389,278.026858 389.879606,272.997003 394.870621,269.967438 C397.006853,268.666278 398.521635,266.413525 400.619027,265.034684 C405.027432,262.160481 410.173809,261.500191 415.281345,261.459752 C420.175258,261.42251 425.069172,262.10222 429.963085,262.335264 C435.459027,262.587728 439.750911,265.248307 443.829172,268.646858 C453.364534,276.628597 461.365693,285.892075 468.279316,296.204249 C470.143664,298.981351 471.794389,301.389467 471.21178,304.865699 C471.075838,305.700771 471.561345,306.710626 471.988592,307.526278 C473.775258,310.905409 475.930911,314.109757 477.387432,317.624829 C478.513809,320.34367 479.310041,323.392655 479.348882,326.305699 C479.426563,334.209757 479.038157,342.113814 478.766273,350.017872 C478.746853,350.794684 478.358447,351.688017 477.87294,352.290046 C475.328882,355.397293 474.299606,358.757003 475.173519,362.796423 C475.464824,364.136423 475.095838,365.825988 474.55207,367.127148 C472.940186,370.914104 471.386563,374.798162 469.230911,378.274394 C467.327722,381.3428 464.958447,384.314104 462.200766,386.625119 C458.743954,389.557583 458.821635,393.286278 458.49149,397.073235 C458.297287,399.209467 458.161345,401.345699 458.005983,403.48193 C457.928302,404.666568 457.831201,405.851206 457.81178,407.035843 C457.79236,407.968017 457.928302,408.919612 457.870041,409.832365 C457.656418,413.075554 457.015548,416.338162 457.248592,419.54251 C457.384534,421.309757 458.646853,423.193525 459.870331,424.630626 C463.016418,428.359322 464.395258,432.534684 464.278737,437.370336 C464.142795,443.66251 464.628302,449.915843 464.919606,456.188597 C465.308012,464.500481 465.502215,473.200771 461.676418,481.124249 C459.443085,485.746278 456.840766,490.174104 454.549172,494.776713 C451.77207,500.330916 447.305403,504.370336 442.450331,507.924249 C440.488882,509.361351 437.886563,510.390626 435.459027,510.64309 C427.496708,511.478162 419.223664,512.623959 411.785693,508.992365 C407.008302,506.66193 402.87178,502.855554 398.793519,499.340481 C396.113519,497.029467 393.977287,494.058162 391.705114,491.300481 C389.258157,488.329177 386.869461,485.299612 384.539027,482.231206 C384.11178,481.668017 383.995258,480.852365 383.762215,480.153235 C382.907722,477.492655 382.655258,474.424249 381.121056,472.268597 C377.605983,467.335843 376.75149,461.995264 377.042795,456.227438 C377.139896,455.431206 377.120476,454.576713 377.120476,453.178452 Z" id="Path" transform="translate(374.134546, 386.478976) scale(-1, 1) translate(-374.134546, -386.478976) "></path>
            <path d="M536.366853,457.976134 C533.279027,454.305699 530.385403,450.868308 527.511201,447.430917 C521.47149,440.167728 516.694099,432.185989 512.499316,423.679902 C507.799606,414.14454 504.67294,404.220772 502.769751,393.869757 C501.488012,386.936714 500.67236,379.945409 499.545983,372.973525 C498.594389,367.069757 497.31265,361.20483 496.555258,355.262221 C496.147432,352.038453 496.108592,348.639902 496.65236,345.454975 C497.468012,340.658163 498.710911,335.900192 500.206273,331.258743 C501.390911,327.588308 503.33294,324.267438 506.750911,321.995264 C512.499316,318.150047 518.364244,314.732076 525.239027,313.159032 C528.521056,312.401641 531.570041,310.789757 534.793809,309.741061 C538.988592,308.362221 543.299896,307.313525 547.455838,305.837583 C554.175258,303.448888 560.797577,300.788308 567.478157,298.321931 C574.081056,295.874975 580.742215,293.54454 587.364534,291.136424 C593.462505,288.90309 599.502215,286.514395 605.639027,284.436424 C608.183085,283.581931 610.960186,283.329467 613.620766,282.82454 C619.077867,281.795264 624.515548,280.630047 630.01149,279.756134 C636.866853,278.668598 643.761056,277.891786 650.616418,276.82367 C660.870331,275.231206 671.182505,274.065989 681.55294,274.842801 C698.390331,276.085699 713.518737,281.348598 725.986563,293.389177 C732.47294,299.642511 738.085403,306.536714 743.484244,313.68338 C745.931201,316.907148 748.222795,320.36396 751.194099,323.04396 C756.903664,328.151496 759.505983,334.909757 762.360766,341.629177 C764.67178,347.086279 767.138157,352.485119 769.546273,357.90338 C769.623954,358.078163 769.759896,358.214105 769.818157,358.388888 C772.01265,364.059612 774.343085,369.691496 776.323954,375.420482 C779.586563,384.878163 779.586563,394.70483 779.023374,404.512076 C778.829172,407.774685 778.285403,411.056714 777.430911,414.222221 C775.197577,422.572946 773.469172,431.176134 770.148302,439.099612 C766.439027,447.974685 761.545114,456.441931 756.495838,464.676134 C754.165403,468.482511 750.261925,471.317873 747.096418,474.619322 C745.21265,476.600192 743.600766,478.911206 741.464534,480.561931 C738.279606,483.047728 734.842215,485.222801 731.327143,487.261931 C724.627143,491.145989 717.228012,493.010337 709.595838,493.748308 C702.410331,494.447438 695.244244,494.913525 687.981056,493.379322 C682.388012,492.214105 676.523085,492.54425 670.87178,491.612076 C663.200766,490.349757 655.374389,489.922511 648.014099,486.757004 C644.149461,485.086859 639.643954,484.892656 635.429751,484.038163 C628.65207,482.659322 621.408302,482.348598 615.193809,479.668598 C608.454969,476.755554 601.521925,475.201931 594.550041,473.551206 C586.41294,471.609177 578.139896,470.172076 569.925114,468.599032 C564.934099,467.647438 559.904244,466.890047 554.93265,465.938453 C552.077867,465.394685 549.184244,464.812076 546.465403,463.821641 C545.397287,463.433235 544.290331,461.976714 543.999027,460.811496 C543.57178,459.121931 543.183374,457.801351 541.688012,456.616714 C538.910911,454.325119 538.794389,454.189177 536.366853,457.976134 Z M702.216128,417.018743 C702.293809,417.018743 702.390911,416.999322 702.468592,416.999322 C701.711201,410.085699 700.740186,403.172076 700.235258,396.239032 C698.895258,378.197583 697.730041,360.136714 696.506563,342.095264 C696.254099,338.250047 695.67149,337.628598 691.865114,337.939322 C685.009751,338.521931 678.193229,339.395844 671.318447,339.78425 C653.898447,340.774685 636.459027,341.337873 619.039027,342.541931 C609.756128,343.182801 600.53149,344.619902 591.326273,346.057004 C586.490621,346.814395 585.946853,347.86309 586.043954,352.757004 C586.121635,357.087728 586.238157,361.418453 586.41294,365.749177 C586.704244,373.750337 586.781925,381.770917 587.461635,389.733235 C588.024824,396.277873 589.442505,402.725409 590.296998,409.250627 C591.054389,415.018453 591.501056,420.825119 592.239027,426.612366 C592.666273,429.913815 593.753809,430.94309 597.055258,430.94309 C601.85207,430.92367 606.648882,430.729467 611.426273,430.341061 C615.93178,429.972076 620.398447,429.137004 624.884534,428.709757 C632.400186,427.991206 639.935258,427.486279 647.450911,426.787148 C658.248592,425.777293 669.026853,424.534395 679.824534,423.621641 C685.844824,423.116714 691.884534,423.097293 697.924244,422.86425 C701.536418,422.728308 702.119027,422.126279 702.177287,418.436424 C702.235548,417.970337 702.216128,417.50425 702.216128,417.018743 Z" id="Shape" transform="translate(637.776048, 384.498829) scale(-1, 1) translate(-637.776048, -384.498829) "></path>
            <path d="M54.3091676,394.247017 C47.9975734,394.247017 41.6665589,394.518901 35.3938053,394.149916 C31.4320662,393.916872 27.4120662,393.062379 23.6251096,391.858321 C19.4497473,390.518321 15.4297473,388.576292 11.4874285,386.595423 C10.0891676,385.896292 8.69090674,384.517452 8.06945746,383.099771 C4.69032703,375.506437 1.874385,367.699481 1.05873282,359.368176 C0.553805288,354.2218 0.24308065,349.075423 0.010037172,343.909626 C-0.0676439874,342.1618 0.32076181,340.355713 0.650906737,338.607887 C3.23380529,324.683539 9.00163137,312.04093 16.9251096,300.485858 C19.2749647,297.048466 23.450327,294.60151 27.2178633,292.484698 C31.3738053,290.154263 35.8793125,287.94035 40.5013415,287.124698 C45.9778633,286.153684 51.7651096,286.289626 57.3581531,286.716872 C62.9511966,287.163539 68.4665589,288.58122 74.0401821,289.513394 C74.6033705,289.610495 75.5355444,289.455133 75.7880082,289.066727 C76.040472,288.697742 75.8656893,287.726727 75.5355444,287.299481 C71.6126459,282.308466 73.0497473,277.20093 75.0694575,272.073973 C76.9338053,267.335423 80.6042401,264.189336 84.9738053,262.053104 C86.6633705,261.237452 89.0909067,261.373394 91.0329357,261.80064 C93.9459792,262.46093 96.7813415,263.626147 99.558443,264.810785 C103.578443,266.539191 105.345689,270.326147 107.210037,273.918901 C109.987139,279.24006 108.880182,284.483539 106.957573,289.765858 C106.413805,291.26122 106.413805,292.931365 106.161342,294.523829 C107.734385,294.251945 109.42395,294.251945 110.880472,293.669336 C119.969168,290.018321 128.960762,286.076002 138.088298,282.54151 C141.661631,281.162669 145.526269,280.5218 149.293805,279.628466 C153.313805,278.676872 157.372646,277.783539 161.412066,276.929046 C170.889168,274.948176 180.346849,272.714843 189.901631,271.18064 C194.601342,270.442669 199.728298,270.131945 204.253226,271.258321 C210.467718,272.831365 216.313226,275.919191 222.275255,278.424408 C228.101342,280.851945 230.994965,285.90122 233.636124,291.202959 C235.616994,295.164698 237.947428,298.951655 239.831197,302.952234 C244.802791,313.497452 247.346849,324.567017 246.647718,336.277452 C245.987428,347.113973 243.38511,357.484408 238.899023,367.349916 C238.219313,368.825858 236.72395,370.262959 235.248008,371.00093 C230.800762,373.253684 226.353515,375.70064 221.595544,377.0018 C217.361921,378.167017 212.739892,378.167017 208.273226,378.264118 C200.54395,378.438901 192.775834,378.633104 185.065979,378.167017 C172.112646,377.390205 159.295255,378.827307 146.439023,379.856582 C143.856124,380.070205 142.710327,381.546147 141.991776,383.837742 C139.700182,391.217452 139.719602,398.849626 139.311776,406.442959 C139.117573,409.996872 139.234095,413.492524 141.409168,416.735713 C142.360762,418.153394 142.22482,420.347887 142.438443,422.212234 C143.234675,429.028756 144.652356,435.845278 144.594095,442.642379 C144.477573,453.634263 143.331776,464.606727 142.690907,475.598611 C142.380182,480.764408 142.438443,485.969046 141.952936,491.115423 C141.58395,495.213104 140.807139,499.271945 139.874965,503.291945 C139.661342,504.204698 138.146559,505.408756 137.136704,505.486437 C126.902211,506.282669 116.648298,507.00122 106.394385,507.467307 C101.616994,507.68093 96.8201821,507.350785 92.0427908,507.253684 C90.0230807,507.214843 89.1685879,506.185568 88.7607618,504.165858 C86.2361241,492.008756 83.3036604,479.948756 81.0120662,467.752814 C78.7787328,455.828756 76.7007618,443.827017 75.3996024,431.767017 C74.1761241,420.367307 74.0207618,408.851075 73.4769937,397.393104 C73.3022111,393.858611 73.0691676,393.528466 69.5540951,393.547887 C64.4659792,393.586727 59.358443,393.547887 54.270327,393.547887 C54.3091676,393.819771 54.3091676,394.033394 54.3091676,394.247017 Z" id="Path"></path>
            <path d="M379.004244,219.300428 C378.654679,212.522747 378.227432,205.745066 378.033229,198.967385 C377.974969,196.831153 378.810041,194.675501 378.693519,192.558689 C378.499316,188.55811 378.227432,184.53811 377.450621,180.615211 C375.722215,172.012023 376.887432,163.428254 377.120476,154.844486 C377.217577,150.941008 377.159316,147.03753 377.139896,143.134052 C377.120476,139.987965 377.042795,136.861298 376.945693,133.715211 C376.790331,128.821298 376.537867,123.946805 376.401925,119.052892 C376.149461,110.138979 375.741635,101.225066 375.780476,92.311153 C375.799896,88.7378197 376.770911,85.1450661 377.314679,81.5717328 C377.431201,80.7949212 377.780766,80.0375299 377.761345,79.2801386 C377.431201,69.7253559 377.605983,60.1317328 375.625114,50.6740516 C372.906273,37.7595588 376.557287,26.0879646 383.529172,15.3097038 C388.170621,8.12419652 395.433809,4.43434145 403.396128,2.37579073 C410.756418,0.47260232 418.330331,-0.478991883 425.981925,0.239558841 C434.99294,1.07463131 444.023374,1.8514429 453.014969,2.90013855 C454.354969,3.05550087 456.122215,4.41492116 456.646563,5.65781971 C458.47207,10.0079646 461.035548,14.5134719 461.15207,19.0189791 C461.501635,31.6227472 470.357287,39.3520226 476.921345,48.2853559 C480.319896,52.9073849 482.728012,57.2575299 482.261925,63.0253559 C481.776418,69.1039067 481.174389,75.1824574 481.116128,81.2804284 C481.038447,88.9514429 481.854099,96.661298 481.523954,104.312892 C481.077287,114.625066 479.834389,124.878979 479.038157,135.171733 C478.630331,140.37637 478.416708,145.581008 478.261345,150.805066 C478.203085,152.980139 480.863664,154.087095 485.582795,153.659849 C486.417867,153.582168 487.602505,152.242168 487.796708,151.290573 C488.262795,149.134921 488.107432,146.843327 488.398737,144.648834 C488.59294,143.308834 489.350331,142.027095 489.505693,140.687095 C489.699896,139.133472 489.447432,137.521588 489.505693,135.948544 C489.563954,134.006515 489.27265,131.889704 489.95236,130.180718 C492.302215,124.23811 491.27294,118.178979 491.175838,112.139269 C491.098157,107.245356 490.826273,102.332023 491.001056,97.4381096 C491.214679,91.573182 491.797287,85.7082545 492.243954,79.843327 C492.321635,78.8723125 492.535258,77.901298 492.748882,76.9497038 C493.020766,75.8039067 493.622795,74.6775299 493.681056,73.5317328 C493.99178,66.5986893 494.224824,59.6656458 494.380186,52.7326023 C494.535548,45.4888342 492.943085,38.6723125 490.185403,31.875211 C488.59294,27.9523125 489.097867,23.1360806 488.981345,18.7082545 C488.961925,17.9897038 490.496128,16.6691241 491.428302,16.5526023 C500.400476,15.3873849 509.314389,13.5424574 518.480766,14.8436168 C524.034969,15.6398487 529.666853,15.8534719 535.279316,16.2030371 C537.104824,16.3195588 537.765114,16.9410081 537.920476,18.8441965 C539.124534,34.1668052 540.483954,49.4699936 541.746273,64.773182 C541.882215,66.5210081 541.901635,68.3465154 541.629751,70.0749212 C540.503374,77.3769501 542.037577,84.5236168 542.523085,91.7479646 C542.969751,98.3897038 542.794969,105.089704 542.794969,111.750863 C542.794969,119.111153 542.484244,126.471443 542.620186,133.831733 C542.756128,140.99782 543.53294,148.144486 543.610621,155.310573 C543.707722,164.709994 543.57178,174.128834 543.241635,183.508834 C543.047432,188.946515 542.21236,194.345356 541.843374,199.783037 C541.707432,201.725066 541.862795,203.744776 542.309461,205.628544 C543.261056,209.629124 541.57149,212.833472 539.707143,216.115501 C537.357287,220.232602 535.376418,224.563327 532.754679,228.466805 C531.608882,230.175791 529.259027,231.049704 527.511201,232.350863 C525.180766,234.079269 522.79207,235.768834 520.558737,237.633182 C515.761925,241.672602 511.198157,246.022747 506.207143,249.790283 C504.750621,250.89724 502.109461,250.91666 500.070331,250.703037 C496.128012,250.295211 492.224534,249.479559 488.321056,248.663907 C481.465693,247.226805 474.649172,245.673182 467.813229,244.100139 C466.007143,243.692312 464.239896,243.070863 462.51149,242.391153 C459.384824,241.128834 456.491201,239.866515 454.393809,236.681588 C450.354389,230.505936 445.810041,224.660428 441.207432,218.892602 C438.760476,215.804776 437.206853,212.581008 437.381635,208.638689 C437.770041,200.385066 438.313809,192.131443 438.605114,183.87782 C438.760476,179.352892 438.682795,174.808544 438.39149,170.303037 C437.770041,160.631733 438.313809,151.09637 439.848012,141.483327 C441.05207,133.948254 440.857867,126.160718 441.265693,118.489704 C441.265693,118.392602 441.265693,118.295501 441.265693,118.198399 C441.07149,115.965066 438.197287,114.741588 433.924824,115.168834 C431.749751,115.382457 431.924534,116.89724 431.769172,118.625646 C431.439027,122.024197 430.545693,125.345066 430.021345,128.724197 C429.827143,130.005936 430.118447,131.326515 430.079606,132.647095 C430.040766,134.666805 430.448592,136.900139 429.710621,138.647965 C427.224824,144.551733 428.254099,150.610863 428.409461,156.631153 C428.642505,165.952892 429.069751,175.21637 427.729751,184.57695 C426.778157,191.179849 424.175838,197.802168 426.020766,204.67695 C426.079027,204.851733 426.079027,205.084776 426.020766,205.259559 C423.845693,211.843037 425.865403,218.543037 425.61294,225.184776 C425.535258,227.398689 426.506273,229.845646 427.593809,231.845936 C430.196128,236.662168 430.487432,241.827965 430.545693,247.052023 C430.584534,250.314631 428.098737,252.412023 424.467143,253.052892 C413.650041,254.93666 402.85236,254.315211 392.015838,253.305356 C389.47178,253.072312 386.869461,253.149994 384.364244,252.703327 C383.45149,252.528544 382.169751,251.266226 382.053229,250.392312 C380.829751,240.041298 379.800476,229.651443 378.71294,219.281008 C378.868302,219.319849 378.945983,219.319849 379.004244,219.300428 Z" id="Path"></path>
            <path d="M968.109036,436.051226 C967.64979,432.090339 967.241572,428.352153 966.807839,424.613966 C966.32308,424.582152 965.863834,424.566244 965.379074,424.53443 C964.99637,425.011645 964.333014,425.488861 964.281987,425.99789 C964.001337,428.606667 963.644146,431.215444 963.7462,433.824222 C963.797228,435.63764 962.751168,436.226205 959.919151,436.337556 C953.387654,436.607978 946.907185,437.117007 940.401201,437.466965 C938.079458,437.594223 937.18648,438.405489 937.007885,439.725784 C936.701721,441.952789 936.114907,444.179794 936.089393,446.406799 C936.089393,447.47258 936.62518,448.776968 937.696753,449.572327 C945.070201,454.980767 952.341594,460.468743 960.276343,465.543133 C968.619309,470.887944 979.972888,472.685455 991.122357,474.673853 C1002.68005,476.725878 1014.08465,479.096048 1025.48926,481.418496 C1026.35672,481.593475 1027.45381,482.500184 1027.45381,483.072842 C1027.37727,487.542759 1027.17316,492.028583 1026.66289,496.482593 C1026.61186,496.975715 1024.4432,497.755167 1023.26957,497.755167 C1013.47232,497.73926 1003.70059,497.580188 993.903346,497.468838 C970.354238,497.198416 946.80513,496.927994 923.256022,496.673479 C914.581377,496.578036 905.906733,496.562128 897.232089,496.530314 C892.205898,496.514407 892.180384,496.4985 892.282439,493.476136 C892.486548,488.004067 892.716171,482.516091 892.818226,477.044022 C893.047848,465.161361 893.175417,453.294606 893.430553,441.411945 C893.481581,439.280383 892.537575,437.991902 888.710526,437.975995 C886.490838,437.975995 884.271149,437.785109 882.051461,437.641944 C879.091876,437.451058 878.300953,438.421396 878.658144,440.028021 C879.11739,442.016418 879.678691,443.988908 880.061396,445.977305 C881.260538,452.531062 878.020303,458.639418 875.060718,464.779588 C874.065685,466.847521 873.019625,468.899547 871.692915,470.887944 C871.02956,471.858282 869.626309,472.637734 868.605762,473.512629 C868.044462,473.989844 867.279052,474.467059 867.049429,475.02381 C863.809194,482.754699 861.334369,490.533308 863.426489,498.566433 C863.911249,500.379851 861.921183,500.173058 860.211768,500.188965 C852.021883,500.236686 843.831998,500.284408 835.667627,500.300315 C826.125518,500.316222 816.557896,500.300315 807.015787,500.300315 C801.453809,500.300315 801.453809,500.300315 801.453809,496.880272 C801.453809,452.642412 801.453809,408.388645 801.453809,364.150785 C801.453809,341.212636 801.453809,318.290393 801.453809,295.352244 C801.453809,292.250344 801.479323,292.282159 806.326918,292.250344 C817.986661,292.138994 829.646403,292.154901 841.280632,291.804943 C852.021883,291.4868 862.73762,290.452833 873.453358,290.325576 C884.5518,290.198319 895.701269,290.770977 906.799711,291.041399 C910.014432,291.120935 913.229154,291.120935 916.443875,291.295914 C928.129131,291.932201 939.814387,292.695745 951.499643,293.284311 C956.908539,293.554733 962.368463,293.586547 967.802872,293.602454 C970.379752,293.602454 971.578894,294.206927 971.936085,295.829459 C973.900637,304.89655 976.477517,313.931827 977.906282,323.030732 C979.768779,334.833858 981.223057,346.668798 981.911926,358.503737 C982.396686,366.48914 981.17203,374.506358 980.942407,382.507668 C980.814839,386.516277 981.529221,390.524885 981.299598,394.533494 C980.993434,399.687419 980.074943,404.825437 979.513642,409.963456 C978.646178,417.869323 977.829741,425.77519 977.089844,433.696964 C976.962276,435.080889 976.324435,435.908062 973.900637,435.908062 C972.165708,435.876247 970.430779,435.97169 968.109036,436.051226 Z M852.634211,372.088467 C852.608697,372.088467 852.55767,372.088467 852.532156,372.088467 C852.532156,375.635767 852.225993,379.198975 852.583184,382.730368 C853.425135,390.731678 860.517932,396.887756 870.876478,400.657757 C877.30592,402.996112 886.031592,403.393792 893.813258,403.648306 C907.20793,404.0778 917.566476,400.291892 923.511158,392.672354 C926.292147,389.093239 928.511836,385.275517 930.170224,381.441887 C933.129808,374.522265 936.038366,367.570828 937.900863,360.508042 C939.508223,354.415593 941.396234,348.020908 935.426038,342.278417 C930.808065,337.840314 925.858415,333.529469 920.832224,329.266346 C919.811678,328.407358 917.87264,327.818793 916.163224,327.468835 C907.794744,325.734952 899.247668,324.414657 890.317887,324.987315 C881.490161,325.544066 873.836063,327.580185 868.325112,332.145545 C862.94173,336.599554 860.160741,341.737573 857.762457,347.05057 C854.573249,354.129264 851.256473,361.128422 852.583184,368.620702 C852.812807,369.750112 852.634211,370.927243 852.634211,372.088467 Z" id="Shape"></path>
            <path d="M70.8430846,234.623037 C66.2210556,234.81724 61.9097512,234.914341 57.6178672,235.186226 C49.0729396,235.710573 40.5280121,236.196081 32.0025048,236.972892 C27.0309106,237.419559 22.1175773,238.429414 17.1654034,239.186805 C15.3593164,239.458689 14.6019251,238.643037 14.1746788,236.83695 C13.048302,231.962457 11.1645338,227.204486 10.504244,222.271733 C9.8827947,217.533182 10.3294614,212.658689 10.4848237,207.842457 C10.6984469,201.258979 11.0674324,194.694921 11.3975773,188.111443 C11.9607657,177.21666 12.6987367,166.321878 13.048302,155.427095 C13.2425048,149.465066 12.8152585,143.503037 12.718157,137.521588 C12.6404759,133.113182 12.718157,128.704776 12.6404759,124.29637 C12.6016353,121.441588 12.6016353,118.567385 12.2326498,115.751443 C11.6694614,111.362457 12.2714904,107.225936 13.2230846,102.914631 C14.4077222,97.5934719 14.5630846,92.039269 15.2233744,86.5821675 C15.7088817,82.5815878 16.3691715,78.6004284 16.7575773,74.5998487 C17.4567077,67.2395588 18.1169976,59.879269 18.6025048,52.5189791 C18.8355483,48.9456458 19.7288817,46.2073849 23.9819251,45.9743415 C23.2245338,52.9656458 22.428302,59.9763704 21.7097512,66.9870951 C20.5251135,78.5810081 20.5445338,90.1360806 22.9138092,101.594052 C23.3216353,103.51666 23.6712005,105.49753 24.3897512,107.303617 C24.7004759,108.080428 25.9239541,108.488254 26.720186,109.070863 C27.186273,108.19695 28.060186,107.303617 28.0407657,106.429704 C27.9630846,101.341588 27.5358382,96.2534719 27.5358382,91.1653559 C27.5358382,85.4946313 27.4193164,79.7656458 28.2349686,74.1920226 C28.7593164,70.6381096 30.8567077,67.2978197 32.2355483,63.8604284 C32.7404759,62.5786893 33.3230846,61.3163704 33.6143889,59.9763704 C34.1969976,57.3157907 35.1291715,55.0630371 37.4596063,53.2569501 C38.9938092,52.0528922 40.3143889,50.0526023 40.858157,48.1688342 C42.4312005,42.6146313 47.0532295,39.7015878 50.704244,35.9146313 C51.306273,35.2737617 52.1025048,34.7299936 52.4909106,33.9726023 C54.588302,30.0885443 57.7926498,28.1853559 62.0651135,26.8453559 C65.580186,25.7383994 69.1146788,23.9905733 71.9500411,20.8639067 C73.9309106,18.6694139 77.8343889,18.2227472 80.8251135,16.9021675 C82.126273,16.3389791 83.5245338,15.7369501 84.476128,14.7659357 C86.748302,12.4549212 89.1564179,10.6294139 92.516128,10.163327 C93.6813454,10.0079646 94.9436643,9.25057333 95.8175773,8.41550087 C100.983374,3.40506609 106.556998,1.69608058 113.859027,3.92941391 C120.947432,6.08506609 127.628012,8.59028348 133.551201,13.115211 C134.502795,13.8337617 135.901056,14.1250661 137.143954,14.2804284 C143.203085,15.0378197 149.281635,15.6981096 155.360186,16.3583994 C160.195838,16.8827472 162.448592,18.6499936 163.788592,23.2914429 C165.167432,28.1076748 166.818157,32.8850661 167.614389,37.7983994 C168.934969,45.9160806 170.080766,54.1114429 170.585693,62.3068052 C171.265403,73.415211 170.37207,84.5236168 167.925114,95.3795588 C166.973519,99.5937617 164.468302,103.458399 162.584534,107.458979 C158.95294,115.207675 155.127143,122.878689 151.650911,130.705066 C150.097287,134.200718 149.359316,138.026515 148.019316,141.619269 C147.436708,143.192312 146.621056,145.03724 145.339316,145.949994 C138.542215,150.824486 131.589751,155.504776 124.598447,160.107385 C120.966853,162.496081 120.79207,162.418399 123.374969,165.719849 C126.093809,169.215501 128.890331,172.633472 131.745114,176.012602 C136.677867,181.838689 140.464824,188.169704 143.339027,195.374631 C145.883085,201.725066 150.621635,207.201588 154.31149,213.105356 C156.583664,216.73695 158.778157,220.426805 160.836708,224.174921 C161.594099,225.573182 161.01149,226.621878 159.593809,227.845356 C150.485693,235.594052 139.53265,239.847095 128.754389,244.449704 C126.656998,245.343037 125.414099,244.83811 124.093519,242.915501 C122.928302,241.225936 121.005693,240.041298 119.490911,238.565356 C118.09265,237.205936 116.810911,235.729994 115.373809,234.409414 C113.975548,233.108254 112.480186,231.923617 110.945983,230.758399 C110.09149,230.11753 109.081635,229.690283 108.207722,229.068834 C105.547143,227.146226 102.808882,225.301298 100.342505,223.126226 C99.1772875,222.09695 98.2839541,220.504486 97.7984469,219.009124 C96.4778672,214.73666 95.2543889,210.503037 91.4480121,207.628834 C91.0596063,207.33753 90.6906208,206.929704 90.5158382,206.502457 C88.3796063,201.142457 86.4375773,195.704776 84.0877222,190.441878 C82.5535193,187.023907 80.4755483,183.838979 78.5335193,180.615211 C76.5720701,177.352602 74.5523599,174.109414 72.416128,170.963327 C71.8335193,170.108834 70.7071425,169.623327 69.8332295,168.963037 C69.3088817,169.992312 68.3572875,171.041008 68.3572875,172.070283 C68.396128,181.722168 68.6485918,191.374052 68.7456933,201.025936 C68.8233744,208.114341 68.5320701,215.202747 68.8427947,222.271733 C68.9787367,226.13637 70.0468527,230.001008 70.8430846,234.623037 Z M93.118157,94.8357907 C93.2540991,95.7291241 93.2346788,97.3410081 93.8172875,98.7198487 C94.2639541,99.7491241 95.5845338,101.263907 96.3419251,101.166805 C101.37178,100.545356 105.255838,97.6905733 108.499027,93.9618777 C108.906853,93.4957907 109.178737,92.6607183 109.081635,92.039269 C108.634969,88.8543415 108.091201,85.6694139 107.450331,82.5039067 C107.333809,81.9601386 106.615258,81.3969501 106.05207,81.1056458 C104.284824,80.2123125 102.517577,79.3578197 100.653229,78.6781096 C97.5071425,77.5323125 96.5749686,78.0566603 95.0213454,81.0085443 C93.2735193,84.3099936 91.3120701,87.4755009 89.5836643,90.7769501 C88.9816353,91.9227472 88.7874324,93.3015878 88.3990266,94.5639067 C89.7196063,94.6221675 91.0207657,94.6998487 93.118157,94.8357907 Z" id="Shape"></path>
            <path d="M239.100476,227.670573 C233.293809,227.398689 227.448302,227.379269 221.680476,226.77724 C215.485403,226.155791 214.456128,224.485646 213.990041,218.329414 C213.698737,214.581298 212.59178,210.872023 211.795548,207.162747 C209.989461,198.773182 207.290041,190.461298 206.474389,181.994052 C205.289751,169.681588 205.23149,157.252602 205.153142,144.881878 C205.114969,139.716081 206.785114,134.569704 206.843374,129.403907 C206.940476,118.994631 206.979316,108.527095 206.105403,98.1566603 C205.017867,85.3198487 206.959896,73.0656458 210.921635,60.9668052 C211.989751,57.6847762 212.805403,54.3444864 213.834679,51.0430371 C215.038737,47.1978197 216.436998,43.4302835 217.582795,39.5850661 C218.359606,36.9439067 218.262505,33.8560806 219.602505,31.6227472 C222.301925,27.1755009 225.914099,23.4662255 231.759606,23.2720226 C237.799316,23.0778197 243.528302,22.0873849 249.179606,19.3685443 C252.09265,17.9702835 256.384534,18.6694139 259.860766,19.3879646 C264.036128,20.2618777 267.939606,22.359269 272.056708,23.5439067 C277.785693,25.2140516 283.689461,27.253182 289.63207,24.8450661 C297.613809,21.621298 305.886853,20.2424574 314.41236,19.8734719 C316.742795,19.7763704 319.073229,19.1355009 321.345403,18.4946313 C324.705114,17.5430371 327.462795,18.0868052 329.870911,20.8056458 C333.016998,24.3207183 334.590041,28.5155009 335.386273,33.0015878 C335.619316,34.3415878 335.347432,36.0699936 334.628882,37.1963704 C331.910041,41.5076748 329.15236,45.8383994 325.889751,49.7224574 C324.530331,51.3537617 321.966853,52.2276748 319.77236,52.8879646 C315.907722,54.053182 311.926563,54.791153 307.984244,55.6844864 C307.129751,55.8786893 306.236418,56.1505733 305.381925,56.0728922 C303.03207,55.859269 302.158157,56.9079646 301.653229,59.1801386 C300.526853,64.3459357 298.895548,69.395211 297.67207,74.5415878 C296.856418,77.9789791 296.409751,81.4940516 295.846563,84.9897038 C295.496998,87.1841965 296.97294,87.4949212 298.701345,87.8056458 C305.556708,88.9902835 312.39265,90.3108632 319.248012,91.573182 C321.151201,91.9227472 322.199896,92.913182 322.879606,94.8746313 C323.889461,97.8265154 325.714969,100.506515 326.783085,103.438979 C329.696128,111.53724 331.346853,119.771443 327.948302,128.180428 C327.15207,130.161298 326.083954,132.064486 324.976998,133.909414 C321.597867,139.502457 316.179606,138.99753 310.936128,138.181878 C305.69265,137.366226 300.526853,136.123327 295.380476,134.841588 C294.642505,134.666805 293.943374,133.365646 293.690911,132.472312 C293.050041,130.200139 292.739316,127.850283 292.117867,125.558689 C291.962505,124.95666 291.146853,124.529414 290.641925,124.024486 C290.175838,124.607095 289.399027,125.150863 289.321345,125.752892 C288.991201,128.685356 288.95236,131.63724 288.661056,134.589124 C287.651201,144.862457 286.699606,155.155211 285.514969,165.428544 C285.029461,169.603907 283.941925,173.721008 283.184534,177.87695 C282.757287,180.226805 284.27207,181.547385 286.524824,180.692892 C288.27265,180.032602 289.826273,178.906226 291.535258,178.168254 C294.195838,177.022457 296.895258,175.915501 299.65294,174.983327 C301.886273,174.225936 304.294389,173.934631 306.488882,173.138399 C310.159316,171.798399 313.693809,172.245066 317.208882,173.468544 C322.161056,175.19695 323.365114,179.741298 323.423374,183.974921 C323.539896,190.538979 322.607722,197.103037 321.986273,203.667095 C321.714389,206.521878 319.927722,208.405646 317.131201,208.968834 C308.294969,210.71666 300.565693,214.989124 292.506273,218.698399 C285.553809,221.883327 277.785693,223.572892 270.231201,225.184776 C260.016128,227.41811 249.626273,228.661008 239.100476,227.670573 Z" id="Path"></path>
            <path d="M1129.71497,174.284197 C1129.87033,173.313182 1130.20048,172.342168 1130.18106,171.371153 C1129.90917,162.010573 1129.57903,152.669414 1129.28772,143.308834 C1129.2683,142.532023 1129.40424,141.755211 1129.44308,140.978399 C1129.55961,139.055791 1130.08395,137.036081 1129.71497,135.210573 C1126.66598,120.315211 1127.42337,105.245066 1127.61758,90.2137617 C1127.67584,85.475211 1128.8799,80.7366603 1129.59845,75.8039067 C1136.55091,76.4059357 1143.07613,77.1827472 1149.62077,77.4546313 C1160.51555,77.9401386 1171.19671,79.6491241 1181.78077,82.0766603 C1187.23787,83.3195588 1192.63671,84.9702835 1197.95787,86.7181096 C1204.13352,88.7183994 1206.87178,93.7288342 1207.76511,99.6714429 C1208.65845,105.49753 1209.16337,111.401298 1209.35758,117.285646 C1209.62946,125.170283 1209.70714,133.074341 1209.33816,140.939559 C1208.93033,149.465066 1205.78424,157.446805 1199.72511,163.214631 C1195.93816,166.826805 1190.09265,168.380428 1185.04337,170.536081 C1175.46917,174.614341 1165.11816,175.15811 1154.98077,176.595211 C1147.85352,177.605066 1140.74569,178.750863 1133.67671,180.090863 C1129.32656,180.906515 1129.32656,181.21724 1129.52077,185.567385 C1129.94801,194.520139 1130.45294,203.472892 1130.68598,212.445066 C1130.76366,215.37753 1131.96772,216.329124 1134.68656,216.69811 C1146.04743,218.271153 1156.80627,221.689124 1166.57468,227.787095 C1172.1483,231.263327 1174.18743,236.234921 1172.96395,242.391153 C1172.38135,245.284776 1170.47816,246.974341 1168.1283,248.411443 C1160.67091,252.975211 1152.65033,254.994921 1143.85294,254.470573 C1135.03613,253.926805 1126.18048,253.810283 1117.34424,253.441298 C1115.4799,253.363617 1113.57671,253.130573 1111.79004,252.606226 C1109.96453,252.062457 1108.27497,251.052602 1105.98337,250.003907 C1102.83729,252.470283 1098.99207,249.615501 1095.12743,249.440718 C1093.01062,249.343617 1090.91323,248.450283 1088.81584,247.906515 C1084.34917,246.760718 1084.03845,246.294631 1084.31033,241.594921 C1084.62106,236.487385 1084.73758,231.360428 1085.16482,226.252892 C1086.17468,214.678399 1086.87381,203.065066 1088.60221,191.587675 C1089.53439,185.353762 1092.27265,179.391733 1094.27294,173.313182 C1096.97236,165.098399 1100.13787,157.038979 1099.61352,148.066805 C1099.28337,142.473762 1100.15729,136.783617 1099.63294,131.229414 C1099.08917,125.403327 1097.55497,119.674341 1096.42859,113.906515 C1093.70975,100.079269 1085.84453,87.7279646 1084.48511,73.5705733 C1083.84424,66.8705733 1084.15497,59.9763704 1084.91236,53.2569501 C1085.70859,46.1491241 1087.24279,39.0801386 1089.08772,32.1470951 C1090.19468,28.0105733 1092.36975,24.1459357 1094.35062,20.3007183 C1094.85555,19.3102835 1096.44801,18.5334719 1097.65207,18.3198487 C1108.0225,16.4166603 1118.31526,16.0865154 1128.74395,18.7859357 C1133.17178,19.9317328 1138.12395,19.3297038 1142.84308,19.1743415 C1153.60193,18.8247762 1163.52569,21.019269 1173.41062,25.641298 C1182.16917,29.7389791 1184.16946,45.3334719 1175.25555,50.1497038 C1172.51729,51.6256458 1169.5654,53.0821675 1166.55526,53.5870951 C1155.44685,55.4126023 1144.24135,56.131153 1132.97758,55.2766603 C1130.64714,55.1018777 1129.83149,54.4027472 1129.67613,51.9557907 C1129.09352,43.0224574 1128.25845,34.1085443 1127.40395,25.1946313 C1127.32627,24.2818777 1126.54946,23.4273849 1126.10279,22.5534719 C1125.52019,23.4662255 1124.54917,24.3207183 1124.43265,25.2917328 C1123.96656,29.0981096 1123.92772,32.9627472 1123.46164,36.7691241 C1122.84019,41.7795588 1122.45178,46.7317328 1119.9854,51.5091241 C1116.8199,57.6070951 1117.59671,64.3459357 1119.32511,70.8323125 C1121.4225,78.6781096 1120.99526,86.7181096 1120.66511,94.6415878 C1120.19903,106.080139 1122.33526,117.207965 1123.5199,128.452312 C1124.8599,141.075501 1126.04453,153.698689 1127.30685,166.321878 C1127.52048,168.380428 1127.65642,170.438979 1127.96714,172.47811 C1128.06424,173.138399 1128.56917,173.759849 1128.89932,174.381298 C1129.21004,174.361878 1129.4625,174.323037 1129.71497,174.284197 Z" id="Path"></path>
            <path d="M973.944824,33.2928922 C973.789461,30.5934719 973.478737,27.3891241 973.478737,24.1653559 C973.478737,23.5050661 974.39149,22.3981096 975.090621,22.223327 C983.188882,19.9899936 991.481345,19.0578197 999.870911,19.0383994 C1004.08511,19.0189791 1008.29932,18.7859357 1012.4941,18.8441965 C1015.23236,18.8830371 1017.97062,19.3102835 1020.70888,19.5821675 C1027.81671,20.3007183 1034.90511,21.0386893 1042.01294,21.75724 C1045.87758,22.1456458 1049.78106,22.3010081 1053.60685,22.9418777 C1056.59758,23.4273849 1059.53004,24.3595588 1062.42366,25.311153 C1065.55033,26.3210081 1063.99671,28.9621675 1063.89961,30.8847762 C1063.86077,31.7198487 1062.54019,32.9821675 1061.62743,33.1569501 C1053.12135,34.8659357 1044.57642,36.3224574 1036.08975,38.0508632 C1035.23526,38.2256458 1034.08946,39.6627472 1033.99236,40.6143415 C1032.53584,55.1989791 1031.00164,69.7836168 1029.95294,84.4070951 C1029.17613,95.3018777 1029.27323,106.274341 1028.63236,117.169124 C1028.28279,123.034052 1027.27294,128.860139 1026.41845,134.686226 C1025.33091,142.182457 1024.34048,149.71753 1022.94221,157.155501 C1021.00019,167.428834 1021.11671,177.702168 1021.99062,188.053182 C1022.57323,195.005646 1023.3112,201.95811 1023.54424,208.929994 C1023.93265,220.73753 1023.97149,232.545066 1024.12685,244.352602 C1024.14627,245.440139 1024.12685,246.527675 1024.04917,247.595791 C1023.69961,251.809994 1021.44685,253.635501 1017.25207,253.188834 C1014.14482,252.858689 1011.03758,252.586805 1007.93033,252.23724 C1006.66801,252.101298 1005.40569,251.771153 1004.14337,251.59637 C1001.71584,251.246805 1000.97787,250.023327 1000.68656,247.459849 C1000.00685,241.750283 998.705693,236.098979 997.501635,230.467095 C996.569461,226.058689 994.938157,221.766805 994.433229,217.338979 C994.044824,213.901588 995.617867,210.231153 995.171201,206.813182 C993.753519,195.97666 996.569461,185.314921 996.064534,174.556081 C995.850911,170.128254 995.443085,165.719849 995.365403,161.292023 C995.229461,155.11637 995.248882,148.921298 995.326563,142.745646 C995.384824,138.33724 995.928592,133.889994 995.714969,129.501008 C995.462505,124.315791 994.685693,119.149994 994.005983,113.984197 C992.996128,106.293762 991.656128,98.6227472 990.879316,90.8934719 C989.811201,80.2123125 988.626563,69.5117328 988.471201,58.7917328 C988.393519,52.6937617 990.199606,46.5763704 991.306563,40.4978197 C991.423085,39.8569501 992.588302,39.4491241 993.073809,38.7888342 C993.598157,38.0702835 994.258447,37.1575299 994.219606,36.3807183 C994.180766,35.7398487 993.229172,34.6523125 992.607722,34.6134719 C986.645693,34.0891241 980.683664,33.7395588 973.944824,33.2928922 Z" id="Path"></path>
            <path d="M744.435838,199.006226 C736.376418,198.462457 729.268592,196.015501 725.054389,188.305646 C724.627143,187.528834 724.258157,186.402457 724.491201,185.606226 C726.277867,179.17811 728.161635,172.788834 730.142505,166.418979 C730.375548,165.661588 731.288302,164.690573 731.987432,164.593472 C742.785114,163.039849 753.582795,162.865066 764.302795,165.098399 C771.721345,166.652023 773.799316,170.49724 771.488302,177.87695 C770.070621,182.382457 768.458737,186.810283 767.060476,191.315791 C766.497287,193.102457 765.526273,194.015211 763.700766,194.558979 C760.515838,195.510573 757.525114,197.200139 754.301345,197.97695 C751.135838,198.714921 747.814969,198.676081 744.435838,199.006226 Z" id="Path"></path>
        </g>
    </g>
</svg>