<?xml version="1.0" encoding="utf-8"?>
<!-- Generator: Adobe Illustrator 24.1.0, SVG Export Plug-In . SVG Version: 6.00 Build 0)  -->
<svg version="1.1" xmlns="http://www.w3.org/2000/svg" xmlns:xlink="http://www.w3.org/1999/xlink" x="0px" y="0px"
	 viewBox="0 0 1417.32 224.64" style="enable-background:new 0 0 1417.32 224.64;" xml:space="preserve">
<style type="text/css">
	.st0{fill:#E7490F;}
</style>
<g id="Background_xA0_Image_1_">
	<path class="st0" d="M390.79,53.24c9.34-0.23,18.69-0.43,28.03-0.68c5.58-0.15,11.16-0.49,16.75-0.5c3.29,0,6.58,0.51,9.87,0.74
		c9.77,0.68,19.25-0.65,28.48-3.93c3.34-1.19,6.74-2.21,10.15-3.19c4.02-1.16,8.13-1.33,12.21-0.47c5.88,1.24,11.77,1.92,17.81,2.05
		c6.38,0.13,12.74,1.01,19.11,1.58c1.47,0.13,2.92,0.39,4.39,0.5c6.58,0.49,12.98,2.47,19.68,2.18c2.12-0.09,4.3,0.67,6.39,1.27
		c0.66,0.19,1.51,1.05,1.6,1.69c0.45,3.44,0.81,6.91,0.95,10.38c0.12,3.23-0.14,6.47-0.12,9.7c0.02,2.87,0.23,5.75,0.29,8.62
		c0.03,1.82-0.01,3.65-0.12,5.47c-0.39,6.16-0.62,12.35-1.3,18.48c-0.76,6.84-1.99,13.63-2.93,20.46
		c-0.61,4.46-1.01,8.96-1.64,13.42c-0.14,0.98-0.64,2.06-1.32,2.77c-3.68,3.87-7.37,7.76-9.52,12.73c-0.8,1.86-1.99,2.95-3.79,3.59
		c-7.39,2.62-13.69,7.09-19.67,11.98c-2.78,2.27-5.81,2.09-8.81,1.6c-6.96-1.13-13.89-2.46-20.79-3.94c-3.71-0.79-7.33-2.05-11-3.07
		c-4.2-1.17-6.85-4-8.46-7.9c-0.3-0.72-0.34-1.59-0.31-2.39c0.08-1.94,0.29-3.77-0.23-5.8c-0.55-2.15,0.08-4.62,0.27-6.94
		c0.11-1.36,0.52-2.72-0.42-3.95c-0.08-0.11-0.09-0.29-0.09-0.44c0.06-3.52,0.13-7.04,0.2-10.57c0.01-0.4,0.19-0.9,0.01-1.18
		c-0.99-1.58-0.43-3.25-0.44-4.9c-0.01-1.75-0.28-3.49-0.32-5.24c-0.06-2.43-0.07-4.87-0.01-7.31c0.02-1,0.38-1.99,0.41-2.99
		c0.03-0.91,0.03-1.93-0.37-2.69c-0.17-0.32-1.38-0.12-2.12-0.12c-2.69-0.01-5.39,0.16-8.06-0.03c-3.69-0.26-7.38-0.74-11.05-1.24
		c-1.02-0.14-2.01-0.6-2.96-1.02c-0.99-0.44-1.67-0.14-1.81,1.01c-0.32,2.56-0.45,5.15-0.93,7.67c-0.95,5.01-1.98,10-3.17,14.96
		c-0.77,3.2-1.99,6.29-2.81,9.48c-0.73,2.82-2.5,4.94-4.22,7.13c-3.08,3.91-6,7.91-7.83,12.59c-0.87,2.24-2.31,3.83-4.49,5.1
		c-2.38,1.38-4.34,3.46-6.48,5.24c-0.55,0.45-1.16,0.87-1.58,1.42c-1.8,2.4-4.23,2.55-6.96,2.29c-8.07-0.78-15.84-2.66-23.09-6.3
		c-1.76-0.88-3.18-2.48-4.68-3.84c-0.36-0.33-0.47-0.99-0.61-1.52c-0.67-2.59-1.38-5.16-1.94-7.78c-0.46-2.16-0.98-4.36-0.99-6.55
		c-0.02-4.5,0.41-9,0.42-13.51c0.01-4.5-0.34-9-0.4-13.5c-0.03-2.26,0.27-4.52,0.35-6.79c0.16-4.41,0.36-8.82,0.39-13.22
		c0.04-7.75-0.08-15.5-0.05-23.25c0.02-5.48,0.15-10.96,0.25-16.44c0.05-2.46,0.15-2.6,2.59-2.67c2.44-0.07,4.87-0.02,7.31-0.02
		C390.79,53.38,390.79,53.31,390.79,53.24z"/>
	<path class="st0" d="M923.41,146.63c-0.08-1.46-0.27-3.21-0.23-4.95c0.02-0.85,0.45-1.69,0.7-2.53c0.23-0.77,0.69-1.55,0.64-2.3
		c-0.04-0.52-0.72-1.35-1.2-1.42c-1.33-0.18-2.72-0.13-4.05,0.05c-0.4,0.05-0.98,0.86-0.98,1.33c0.01,3.28,0.19,6.56,0.23,9.84
		c0.07,5.03,0.51,10.26-2.4,14.66c-1.68,2.54-2.39,5.53-4.33,7.9c-2.99,3.64-6.25,6.64-11.45,6.24c-2.52-0.2-5.06-0.14-7.56-0.44
		c-1.08-0.13-2.14-0.79-3.1-1.38c-3.73-2.3-6.48-5.66-9.4-8.83c-1.24-1.35-2.2-2.95-3.27-4.45c-0.11-0.15-0.24-0.37-0.21-0.53
		c0.39-2.54-1.52-4.16-2.4-6.2c-0.58-1.36-1.07-2.83-1.19-4.29c-0.26-3.09-0.27-6.2-0.32-9.3c-0.01-0.48,0.16-1.09,0.48-1.42
		c1.14-1.18,1.38-2.5,1.02-4.03c-0.11-0.46-0.3-1.03-0.13-1.41c2.45-5.59,1.99-11.67,2.95-17.51c0.35-2.12,0.14-4.33,0.13-6.5
		c0-0.46-0.14-1-0.41-1.36c-1.37-1.81-2.83-3.56-4.19-5.37c-0.41-0.55-0.66-1.24-0.88-1.9c-0.34-1.02-0.39-2.2-0.93-3.09
		c-1.94-3.23-3.22-6.55-3.01-10.42c0.13-2.36-0.21-4.74-0.23-7.12c-0.01-0.61,0.28-1.3,0.64-1.81c0.82-1.16,1.23-2.3,0.97-3.79
		c-0.18-1.03-0.03-2.25,0.37-3.23c1.23-3.09,2.49-6.19,4.93-8.6c0.54-0.54,1.21-0.97,1.86-1.38c4.64-2.91,9.76-3.65,15.15-3.77
		c6.09-0.13,10.95,2.5,15.64,5.92c3.47,2.53,6.26,5.61,8.4,9.3c0.33,0.56,0.62,1.25,0.62,1.88c0.03,2.52-0.07,5.04-0.12,7.55
		c-0.01,0.53-0.1,1.09,0.03,1.59c0.94,3.54,0.43,7.09,0.29,10.66c-0.12,3.05-0.85,5.84-2.3,8.46c-1.74,3.14-3.57,6.22-5.39,9.31
		c-0.62,1.06-0.52,1.5,0.57,1.57c4.26,0.31,8.52,0.68,12.79,0.82c2.82,0.09,5.61-0.3,8.12-1.83c1.12-0.69,1.23-0.99,0.21-1.88
		c-1.73-1.53-3.77-2.82-5.17-4.62c-2.11-2.71-4.6-5.31-5.17-8.92c-0.18-1.13-0.29-2.32-0.18-3.45c0.37-3.87,0.51-7.69-0.02-11.58
		c-0.29-2.09,0.34-4.31,0.54-6.47c0.35-3.69,0.88-7.33,2.93-10.54c0.26-0.4,0.61-0.74,0.86-1.14c0.51-0.82,1-1.65,1.44-2.51
		c0.47-0.9,0.74-1.92,1.32-2.72c1.67-2.28,2.96-4.87,5.53-6.43c1.1-0.67,1.88-1.83,2.96-2.54c2.27-1.48,4.92-1.82,7.55-1.84
		c2.52-0.02,5.04,0.33,7.56,0.45c2.83,0.13,5.04,1.5,7.14,3.25c4.91,4.11,9.03,8.88,12.59,14.19c0.96,1.43,1.81,2.67,1.51,4.46
		c-0.07,0.43,0.18,0.95,0.4,1.37c0.92,1.74,2.03,3.39,2.78,5.2c0.58,1.4,0.99,2.97,1.01,4.47c0.04,4.07-0.16,8.14-0.3,12.21
		c-0.01,0.4-0.21,0.86-0.46,1.17c-1.31,1.6-1.84,3.33-1.39,5.41c0.15,0.69-0.04,1.56-0.32,2.23c-0.83,1.95-1.63,3.95-2.74,5.74
		c-0.98,1.58-2.2,3.11-3.62,4.3c-1.78,1.51-1.74,3.43-1.91,5.38c-0.1,1.1-0.17,2.2-0.25,3.3c-0.04,0.61-0.09,1.22-0.1,1.83
		c-0.01,0.48,0.06,0.97,0.03,1.44c-0.11,1.67-0.44,3.35-0.32,5c0.07,0.91,0.72,1.88,1.35,2.62c1.62,1.92,2.33,4.07,2.27,6.56
		c-0.07,3.24,0.18,6.46,0.33,9.69c0.2,4.28,0.3,8.76-1.67,12.84c-1.15,2.38-2.49,4.66-3.67,7.03c-1.43,2.86-3.73,4.94-6.23,6.77
		c-1.01,0.74-2.35,1.27-3.6,1.4c-4.1,0.43-8.36,1.02-12.19-0.85c-2.46-1.2-4.59-3.16-6.69-4.97c-1.38-1.19-2.48-2.72-3.65-4.14
		c-1.26-1.53-2.49-3.09-3.69-4.67c-0.22-0.29-0.28-0.71-0.4-1.07c-0.44-1.37-0.57-2.95-1.36-4.06c-1.81-2.54-2.25-5.29-2.1-8.26
		C923.42,147.79,923.41,147.35,923.41,146.63z"/>
	<path class="st0" d="M1005.41,157.88c-1.59-1.89-3.08-3.66-4.56-5.43c-3.11-3.74-5.57-7.85-7.73-12.23
		c-2.42-4.91-4.03-10.02-5.01-15.35c-0.66-3.57-1.08-7.17-1.66-10.76c-0.49-3.04-1.15-6.06-1.54-9.12
		c-0.21-1.66-0.23-3.41,0.05-5.05c0.42-2.47,1.06-4.92,1.83-7.31c0.61-1.89,1.61-3.6,3.37-4.77c2.96-1.98,5.98-3.74,9.52-4.55
		c1.69-0.39,3.26-1.22,4.92-1.76c2.16-0.71,4.38-1.25,6.52-2.01c3.46-1.23,6.87-2.6,10.31-3.87c3.4-1.26,6.83-2.46,10.24-3.7
		c3.14-1.15,6.25-2.38,9.41-3.45c1.31-0.44,2.74-0.57,4.11-0.83c2.81-0.53,5.61-1.13,8.44-1.58c3.53-0.56,7.08-0.96,10.61-1.51
		c5.28-0.82,10.59-1.42,15.93-1.02c8.67,0.64,16.46,3.35,22.88,9.55c3.34,3.22,6.23,6.77,9.01,10.45c1.26,1.66,2.44,3.44,3.97,4.82
		c2.94,2.63,4.28,6.11,5.75,9.57c1.19,2.81,2.46,5.59,3.7,8.38c0.04,0.09,0.11,0.16,0.14,0.25c1.13,2.92,2.33,5.82,3.35,8.77
		c1.68,4.87,1.68,9.93,1.39,14.98c-0.1,1.68-0.38,3.37-0.82,5c-1.15,4.3-2.04,8.73-3.75,12.81c-1.91,4.57-4.43,8.93-7.03,13.17
		c-1.2,1.96-3.21,3.42-4.84,5.12c-0.97,1.02-1.8,2.21-2.9,3.06c-1.64,1.28-3.41,2.4-5.22,3.45c-3.45,2-7.26,2.96-11.19,3.34
		c-3.7,0.36-7.39,0.6-11.13-0.19c-2.88-0.6-5.9-0.43-8.81-0.91c-3.95-0.65-7.98-0.87-11.77-2.5c-1.99-0.86-4.31-0.96-6.48-1.4
		c-3.49-0.71-7.22-0.87-10.42-2.25c-3.47-1.5-7.04-2.3-10.63-3.15c-4.19-1-8.45-1.74-12.68-2.55c-2.57-0.49-5.16-0.88-7.72-1.37
		c-1.47-0.28-2.96-0.58-4.36-1.09c-0.55-0.2-1.12-0.95-1.27-1.55c-0.22-0.87-0.42-1.55-1.19-2.16
		C1006.72,156,1006.66,155.93,1005.41,157.88z M1090.81,136.79c0.04,0,0.09-0.01,0.13-0.01c-0.39-3.56-0.89-7.12-1.15-10.69
		c-0.69-9.29-1.29-18.59-1.92-27.88c-0.13-1.98-0.43-2.3-2.39-2.14c-3.53,0.3-7.04,0.75-10.58,0.95c-8.97,0.51-17.95,0.8-26.92,1.42
		c-4.78,0.33-9.53,1.07-14.27,1.81c-2.49,0.39-2.77,0.93-2.72,3.45c0.04,2.23,0.1,4.46,0.19,6.69c0.15,4.12,0.19,8.25,0.54,12.35
		c0.29,3.37,1.02,6.69,1.46,10.05c0.39,2.97,0.62,5.96,1,8.94c0.22,1.7,0.78,2.23,2.48,2.23c2.47-0.01,4.94-0.11,7.4-0.31
		c2.32-0.19,4.62-0.62,6.93-0.84c3.87-0.37,7.75-0.63,11.62-0.99c5.56-0.52,11.11-1.16,16.67-1.63c3.1-0.26,6.21-0.27,9.32-0.39
		c1.86-0.07,2.16-0.38,2.19-2.28C1090.82,137.28,1090.81,137.04,1090.81,136.79z"/>
	<path class="st0" d="M759.2,114.51c-3.25,0-6.51,0.14-9.74-0.05c-2.04-0.12-4.11-0.56-6.06-1.18c-2.15-0.69-4.22-1.69-6.25-2.71
		c-0.72-0.36-1.44-1.07-1.76-1.8c-1.74-3.91-3.19-7.93-3.61-12.22c-0.26-2.65-0.42-5.3-0.54-7.96c-0.04-0.9,0.16-1.83,0.33-2.73
		c1.33-7.17,4.3-13.68,8.38-19.63c1.21-1.77,3.36-3.03,5.3-4.12c2.14-1.2,4.46-2.34,6.84-2.76c2.82-0.5,5.8-0.43,8.68-0.21
		c2.88,0.23,5.72,0.96,8.59,1.44c0.29,0.05,0.77-0.03,0.9-0.23c0.13-0.19,0.04-0.69-0.13-0.91c-2.02-2.57-1.28-5.2-0.24-7.84
		c0.96-2.44,2.85-4.06,5.1-5.16c0.87-0.42,2.12-0.35,3.12-0.13c1.5,0.34,2.96,0.94,4.39,1.55c2.07,0.89,2.98,2.84,3.94,4.69
		c1.43,2.74,0.86,5.44-0.13,8.16c-0.28,0.77-0.28,1.63-0.41,2.45c0.81-0.14,1.68-0.14,2.43-0.44c4.68-1.88,9.31-3.91,14.01-5.73
		c1.84-0.71,3.83-1.04,5.77-1.5c2.07-0.49,4.16-0.95,6.24-1.39c4.88-1.02,9.75-2.17,14.67-2.96c2.42-0.38,5.06-0.54,7.39,0.04
		c3.2,0.81,6.21,2.4,9.28,3.69c3,1.25,4.49,3.85,5.85,6.58c1.02,2.04,2.22,3.99,3.19,6.05c2.56,5.43,3.87,11.13,3.51,17.16
		c-0.34,5.58-1.68,10.92-3.99,16c-0.35,0.76-1.12,1.5-1.88,1.88c-2.29,1.16-4.58,2.42-7.03,3.09c-2.18,0.6-4.56,0.6-6.86,0.65
		c-3.98,0.09-7.98,0.19-11.95-0.05c-6.67-0.4-13.27,0.34-19.89,0.87c-1.33,0.11-1.92,0.87-2.29,2.05c-1.18,3.8-1.17,7.73-1.38,11.64
		c-0.1,1.83-0.04,3.63,1.08,5.3c0.49,0.73,0.42,1.86,0.53,2.82c0.41,3.51,1.14,7.02,1.11,10.52c-0.06,5.66-0.65,11.31-0.98,16.97
		c-0.16,2.66-0.13,5.34-0.38,7.99c-0.19,2.11-0.59,4.2-1.07,6.27c-0.11,0.47-0.89,1.09-1.41,1.13c-5.27,0.41-10.55,0.78-15.83,1.02
		c-2.46,0.11-4.93-0.06-7.39-0.11c-1.04-0.02-1.48-0.55-1.69-1.59c-1.3-6.26-2.81-12.47-3.99-18.75
		c-1.15-6.14-2.22-12.32-2.89-18.53c-0.63-5.87-0.71-11.8-0.99-17.7c-0.09-1.82-0.21-1.99-2.02-1.98c-2.62,0.02-5.25,0-7.87,0
		C759.2,114.29,759.2,114.4,759.2,114.51z"/>
	<path class="st0" d="M269.95,152.28c-0.18-3.49-0.4-6.98-0.5-10.47c-0.03-1.1,0.4-2.21,0.34-3.3c-0.1-2.06-0.24-4.13-0.64-6.15
		c-0.89-4.43-0.29-8.85-0.17-13.27c0.05-2.01,0.02-4.02,0.01-6.03c-0.01-1.62-0.05-3.23-0.1-4.85c-0.08-2.52-0.21-5.03-0.28-7.55
		c-0.13-4.59-0.34-9.18-0.32-13.77c0.01-1.84,0.51-3.69,0.79-5.53c0.06-0.4,0.24-0.79,0.23-1.18c-0.17-4.92-0.08-9.86-1.1-14.73
		c-1.4-6.65,0.48-12.66,4.07-18.21c2.39-3.7,6.13-5.6,10.23-6.66c3.79-0.98,7.69-1.47,11.63-1.1c4.64,0.43,9.29,0.83,13.92,1.37
		c0.69,0.08,1.6,0.78,1.87,1.42c0.94,2.24,2.26,4.56,2.32,6.88c0.18,6.49,4.74,10.47,8.12,15.07c1.75,2.38,2.99,4.62,2.75,7.59
		c-0.25,3.13-0.56,6.26-0.59,9.4c-0.04,3.95,0.38,7.92,0.21,11.86c-0.23,5.31-0.87,10.59-1.28,15.89c-0.21,2.68-0.32,5.36-0.4,8.05
		c-0.03,1.12,1.34,1.69,3.77,1.47c0.43-0.04,1.04-0.73,1.14-1.22c0.24-1.11,0.16-2.29,0.31-3.42c0.1-0.69,0.49-1.35,0.57-2.04
		c0.1-0.8-0.03-1.63,0-2.44c0.03-1-0.12-2.09,0.23-2.97c1.21-3.06,0.68-6.18,0.63-9.29c-0.04-2.52-0.18-5.05-0.09-7.57
		c0.11-3.02,0.41-6.04,0.64-9.06c0.04-0.5,0.15-1,0.26-1.49c0.14-0.59,0.45-1.17,0.48-1.76c0.16-3.57,0.28-7.14,0.36-10.71
		c0.08-3.73-0.74-7.24-2.16-10.74c-0.82-2.02-0.56-4.5-0.62-6.78c-0.01-0.37,0.78-1.05,1.26-1.11c4.62-0.6,9.21-1.55,13.93-0.88
		c2.86,0.41,5.76,0.52,8.65,0.7c0.94,0.06,1.28,0.38,1.36,1.36c0.62,7.89,1.32,15.77,1.97,23.65c0.07,0.9,0.08,1.84-0.06,2.73
		c-0.58,3.76,0.21,7.44,0.46,11.16c0.23,3.42,0.14,6.87,0.14,10.3c0,3.79-0.16,7.58-0.09,11.37c0.07,3.69,0.47,7.37,0.51,11.06
		c0.05,4.84-0.02,9.69-0.19,14.52c-0.1,2.8-0.53,5.58-0.72,8.38c-0.07,1,0.01,2.04,0.24,3.01c0.49,2.06-0.38,3.71-1.34,5.4
		c-1.21,2.12-2.23,4.35-3.58,6.36c-0.59,0.88-1.8,1.33-2.7,2c-1.2,0.89-2.43,1.76-3.58,2.72c-2.47,2.08-4.82,4.32-7.39,6.26
		c-0.75,0.57-2.11,0.58-3.16,0.47c-2.03-0.21-4.04-0.63-6.05-1.05c-3.53-0.74-7.04-1.54-10.56-2.35c-0.93-0.21-1.84-0.53-2.73-0.88
		c-1.61-0.65-3.1-1.3-4.18-2.94c-2.08-3.18-4.42-6.19-6.79-9.16c-1.26-1.59-2.06-3.25-1.97-5.28c0.2-4.25,0.48-8.5,0.63-12.75
		c0.08-2.33,0.04-4.67-0.11-6.99c-0.32-4.98-0.04-9.89,0.75-14.84c0.62-3.88,0.52-7.89,0.73-11.84c0-0.05,0-0.1,0-0.15
		c-0.1-1.15-1.58-1.78-3.78-1.56c-1.12,0.11-1.03,0.89-1.11,1.78c-0.17,1.75-0.63,3.46-0.9,5.2c-0.1,0.66,0.05,1.34,0.03,2.02
		c-0.02,1.04,0.19,2.19-0.19,3.09c-1.28,3.04-0.75,6.16-0.67,9.26c0.12,4.8,0.34,9.57-0.35,14.39c-0.49,3.4-1.83,6.81-0.88,10.35
		c0.03,0.09,0.03,0.21,0,0.3c-1.12,3.39-0.08,6.84-0.21,10.26c-0.04,1.14,0.46,2.4,1.02,3.43c1.34,2.48,1.49,5.14,1.52,7.83
		c0.02,1.68-1.26,2.76-3.13,3.09c-5.57,0.97-11.13,0.65-16.71,0.13c-1.31-0.12-2.65-0.08-3.94-0.31c-0.47-0.09-1.13-0.74-1.19-1.19
		c-0.63-5.33-1.16-10.68-1.72-16.02C269.88,152.29,269.92,152.29,269.95,152.28z"/>
	<path class="st0" d="M1207.23,136.49c-0.18-2.49-0.34-4.84-0.51-7.19c-0.19-0.02-0.37-0.03-0.56-0.05c-0.15,0.3-0.41,0.6-0.43,0.92
		c-0.11,1.64-0.25,3.28-0.21,4.92c0.02,1.14-0.39,1.51-1.5,1.58c-2.56,0.17-5.1,0.49-7.65,0.71c-0.91,0.08-1.26,0.59-1.33,1.42
		c-0.12,1.4-0.35,2.8-0.36,4.2c0,0.67,0.21,1.49,0.63,1.99c2.89,3.4,5.74,6.85,8.85,10.04c3.27,3.36,7.72,4.49,12.09,5.74
		c4.53,1.29,9,2.78,13.47,4.24c0.34,0.11,0.77,0.68,0.77,1.04c-0.03,2.81-0.11,5.63-0.31,8.43c-0.02,0.31-0.87,0.8-1.33,0.8
		c-3.84-0.01-7.67-0.11-11.51-0.18c-9.23-0.17-18.46-0.34-27.69-0.5c-3.4-0.06-6.8-0.07-10.2-0.09c-1.97-0.01-1.98-0.02-1.94-1.92
		c0.08-3.44,0.17-6.89,0.21-10.33c0.09-7.47,0.14-14.93,0.24-22.4c0.02-1.34-0.35-2.15-1.85-2.16c-0.87,0-1.74-0.12-2.61-0.21
		c-1.16-0.12-1.47,0.49-1.33,1.5c0.18,1.25,0.4,2.49,0.55,3.74c0.47,4.12-0.8,7.96-1.96,11.82c-0.39,1.3-0.8,2.59-1.32,3.84
		c-0.26,0.61-0.81,1.1-1.21,1.65c-0.22,0.3-0.52,0.6-0.61,0.95c-1.27,4.86-2.24,9.75-1.42,14.8c0.19,1.14-0.59,1.01-1.26,1.02
		c-3.21,0.03-6.42,0.06-9.62,0.07c-3.74,0.01-7.49,0-11.23,0c-2.18,0-2.18,0-2.18-2.15c0-27.81,0-55.63,0-83.44
		c0-14.42,0-28.83,0-43.25c0-1.95,0.01-1.93,1.91-1.95c4.57-0.07,9.14-0.06,13.7-0.28c4.21-0.2,8.41-0.85,12.61-0.93
		c4.35-0.08,8.72,0.28,13.07,0.45c1.26,0.05,2.52,0.05,3.78,0.16c4.58,0.4,9.16,0.88,13.74,1.25c2.12,0.17,4.26,0.19,6.39,0.2
		c1.01,0,1.48,0.38,1.62,1.4c0.77,5.7,1.78,11.38,2.34,17.1c0.73,7.42,1.3,14.86,1.57,22.3c0.19,5.02-0.29,10.06-0.38,15.09
		c-0.05,2.52,0.23,5.04,0.14,7.56c-0.12,3.24-0.48,6.47-0.7,9.7c-0.34,4.97-0.66,9.94-0.95,14.92c-0.05,0.87-0.3,1.39-1.25,1.39
		C1208.82,136.38,1208.14,136.44,1207.23,136.49z M1161.97,96.28c-0.01,0-0.03,0-0.04,0c0,2.23-0.12,4.47,0.02,6.69
		c0.33,5.03,3.11,8.9,7.17,11.27c2.52,1.47,5.94,1.72,8.99,1.88c5.25,0.27,9.31-2.11,11.64-6.9c1.09-2.25,1.96-4.65,2.61-7.06
		c1.16-4.35,2.3-8.72,3.03-13.16c0.63-3.83,1.37-7.85-0.97-11.46c-1.81-2.79-3.75-5.5-5.72-8.18c-0.4-0.54-1.16-0.91-1.83-1.13
		c-3.28-1.09-6.63-1.92-10.13-1.56c-3.46,0.35-6.46,1.63-8.62,4.5c-2.11,2.8-3.2,6.03-4.14,9.37c-1.25,4.45-2.55,8.85-2.03,13.56
		C1162.04,94.81,1161.97,95.55,1161.97,96.28z"/>
	<path class="st0" d="M111.27,160.17c-2.38,0.1-4.6,0.15-6.81,0.29c-4.4,0.27-8.8,0.52-13.19,0.92c-2.56,0.23-5.09,0.75-7.64,1.14
		c-0.93,0.14-1.32-0.28-1.54-1.21c-0.58-2.51-1.55-4.96-1.89-7.5c-0.32-2.44-0.09-4.95-0.01-7.43c0.11-3.39,0.3-6.77,0.47-10.16
		c0.29-5.61,0.67-11.22,0.85-16.83c0.1-3.07-0.12-6.14-0.17-9.22c-0.04-2.27,0-4.54-0.04-6.81c-0.02-1.47-0.02-2.95-0.21-4.4
		c-0.29-2.26,0.02-4.39,0.51-6.61c0.61-2.74,0.69-5.6,1.03-8.41c0.25-2.06,0.59-4.11,0.79-6.17c0.36-3.79,0.7-7.58,0.95-11.37
		c0.12-1.84,0.58-3.25,2.77-3.37c-0.39,3.6-0.8,7.21-1.17,10.82c-0.61,5.97-0.6,11.92,0.62,17.82c0.21,0.99,0.39,2.01,0.76,2.94
		c0.16,0.4,0.79,0.61,1.2,0.91c0.24-0.45,0.69-0.91,0.68-1.36c-0.04-2.62-0.26-5.24-0.26-7.86c0-2.92-0.06-5.87,0.36-8.74
		c0.27-1.83,1.35-3.55,2.06-5.32c0.26-0.66,0.56-1.31,0.71-2c0.3-1.37,0.78-2.53,1.98-3.46c0.79-0.62,1.47-1.65,1.75-2.62
		c0.81-2.86,3.19-4.36,5.07-6.31c0.31-0.33,0.72-0.61,0.92-1c1.08-2,2.73-2.98,4.93-3.67c1.81-0.57,3.63-1.47,5.09-3.08
		c1.02-1.13,3.03-1.36,4.57-2.04c0.67-0.29,1.39-0.6,1.88-1.1c1.17-1.19,2.41-2.13,4.14-2.37c0.6-0.08,1.25-0.47,1.7-0.9
		c2.66-2.58,5.53-3.46,9.29-2.31c3.65,1.11,7.09,2.4,10.14,4.73c0.49,0.37,1.21,0.52,1.85,0.6c3.12,0.39,6.25,0.73,9.38,1.07
		c2.49,0.27,3.65,1.18,4.34,3.57c0.71,2.48,1.56,4.94,1.97,7.47c0.68,4.18,1.27,8.4,1.53,12.62c0.35,5.72-0.11,11.44-1.37,17.03
		c-0.49,2.17-1.78,4.16-2.75,6.22c-1.87,3.99-3.84,7.94-5.63,11.97c-0.8,1.8-1.18,3.77-1.87,5.62c-0.3,0.81-0.72,1.76-1.38,2.23
		c-3.5,2.51-7.08,4.92-10.68,7.29c-1.87,1.23-1.96,1.19-0.63,2.89c1.4,1.8,2.84,3.56,4.31,5.3c2.54,3,4.49,6.26,5.97,9.97
		c1.31,3.27,3.75,6.09,5.65,9.13c1.17,1.87,2.3,3.77,3.36,5.7c0.39,0.72,0.09,1.26-0.64,1.89c-4.69,3.99-10.33,6.18-15.88,8.55
		c-1.08,0.46-1.72,0.2-2.4-0.79c-0.6-0.87-1.59-1.48-2.37-2.24c-0.72-0.7-1.38-1.46-2.12-2.14c-0.72-0.67-1.49-1.28-2.28-1.88
		c-0.44-0.33-0.96-0.55-1.41-0.87c-1.37-0.99-2.78-1.94-4.05-3.06c-0.6-0.53-1.06-1.35-1.31-2.12c-0.68-2.2-1.31-4.38-3.27-5.86
		c-0.2-0.15-0.39-0.36-0.48-0.58c-1.1-2.76-2.1-5.56-3.31-8.27c-0.79-1.76-1.86-3.4-2.86-5.06c-1.01-1.68-2.05-3.35-3.15-4.97
		c-0.3-0.44-0.88-0.69-1.33-1.03c-0.27,0.53-0.76,1.07-0.76,1.6c0.02,4.97,0.15,9.94,0.2,14.91c0.04,3.65-0.11,7.3,0.05,10.94
		C110.31,155.8,110.86,157.79,111.27,160.17z M122.74,88.19c0.07,0.46,0.06,1.29,0.36,2c0.23,0.53,0.91,1.31,1.3,1.26
		c2.59-0.32,4.59-1.79,6.26-3.71c0.21-0.24,0.35-0.67,0.3-0.99c-0.23-1.64-0.51-3.28-0.84-4.91c-0.06-0.28-0.43-0.57-0.72-0.72
		c-0.91-0.46-1.82-0.9-2.78-1.25c-1.62-0.59-2.1-0.32-2.9,1.2c-0.9,1.7-1.91,3.33-2.8,5.03c-0.31,0.59-0.41,1.3-0.61,1.95
		C120.99,88.08,121.66,88.12,122.74,88.19z"/>
	<path class="st0" d="M197.91,156.59c-2.99-0.14-6-0.15-8.97-0.46c-3.19-0.32-3.72-1.18-3.96-4.35c-0.15-1.93-0.72-3.84-1.13-5.75
		c-0.93-4.32-2.32-8.6-2.74-12.96c-0.61-6.34-0.64-12.74-0.68-19.11c-0.02-2.66,0.84-5.31,0.87-7.97
		c0.05-5.36,0.07-10.75-0.38-16.09c-0.56-6.61,0.44-12.92,2.48-19.15c0.55-1.69,0.97-3.41,1.5-5.11c0.62-1.98,1.34-3.92,1.93-5.9
		c0.4-1.36,0.35-2.95,1.04-4.1c1.39-2.29,3.25-4.2,6.26-4.3c3.11-0.1,6.06-0.61,8.97-2.01c1.5-0.72,3.71-0.36,5.5,0.01
		c2.15,0.45,4.16,1.53,6.28,2.14c2.95,0.86,5.99,1.91,9.05,0.67c4.11-1.66,8.37-2.37,12.76-2.56c1.2-0.05,2.4-0.38,3.57-0.71
		c1.73-0.49,3.15-0.21,4.39,1.19c1.62,1.81,2.43,3.97,2.84,6.28c0.12,0.69-0.02,1.58-0.39,2.16c-1.4,2.22-2.82,4.45-4.5,6.45
		c-0.7,0.84-2.02,1.29-3.15,1.63c-1.99,0.6-4.04,0.98-6.07,1.44c-0.44,0.1-0.9,0.24-1.34,0.2c-1.21-0.11-1.66,0.43-1.92,1.6
		c-0.58,2.66-1.42,5.26-2.05,7.91c-0.42,1.77-0.65,3.58-0.94,5.38c-0.18,1.13,0.58,1.29,1.47,1.45c3.53,0.61,7.05,1.29,10.58,1.94
		c0.98,0.18,1.52,0.69,1.87,1.7c0.52,1.52,1.46,2.9,2.01,4.41c1.5,4.17,2.35,8.41,0.6,12.74c-0.41,1.02-0.96,2-1.53,2.95
		c-1.74,2.88-4.53,2.62-7.23,2.2c-2.7-0.42-5.36-1.06-8.01-1.72c-0.38-0.09-0.74-0.76-0.87-1.22c-0.33-1.17-0.49-2.38-0.81-3.56
		c-0.08-0.31-0.5-0.53-0.76-0.79c-0.24,0.3-0.64,0.58-0.68,0.89c-0.17,1.51-0.19,3.03-0.34,4.55c-0.52,5.29-1.01,10.59-1.62,15.88
		c-0.25,2.15-0.81,4.27-1.2,6.41c-0.22,1.21,0.56,1.89,1.72,1.45c0.9-0.34,1.7-0.92,2.58-1.3c1.37-0.59,2.76-1.16,4.18-1.64
		c1.15-0.39,2.39-0.54,3.52-0.95c1.89-0.69,3.71-0.46,5.52,0.17c2.55,0.89,3.17,3.23,3.2,5.41c0.06,3.38-0.42,6.76-0.74,10.14
		c-0.14,1.47-1.06,2.44-2.5,2.73c-4.55,0.9-8.53,3.1-12.68,5.01c-3.58,1.64-7.58,2.51-11.47,3.34
		C208.68,156.46,203.33,157.1,197.91,156.59z"/>
	<path class="st0" d="M656.51,129.1c0.08-0.5,0.25-1,0.24-1.5c-0.14-4.82-0.31-9.63-0.46-14.45c-0.01-0.4,0.06-0.8,0.08-1.2
		c0.06-0.99,0.33-2.03,0.14-2.97c-1.57-7.67-1.18-15.43-1.08-23.17c0.03-2.44,0.65-4.88,1.02-7.42c3.58,0.31,6.94,0.71,10.31,0.85
		c5.61,0.25,11.11,1.13,16.56,2.38c2.81,0.64,5.59,1.49,8.33,2.39c3.18,1.03,4.59,3.61,5.05,6.67c0.46,3,0.72,6.04,0.82,9.07
		c0.14,4.06,0.18,8.13-0.01,12.18c-0.21,4.39-1.83,8.5-4.95,11.47c-1.95,1.86-4.96,2.66-7.56,3.77c-4.93,2.1-10.26,2.38-15.48,3.12
		c-3.67,0.52-7.33,1.11-10.97,1.8c-2.24,0.42-2.24,0.58-2.14,2.82c0.22,4.61,0.48,9.22,0.6,13.84c0.04,1.51,0.66,2,2.06,2.19
		c5.85,0.81,11.39,2.57,16.42,5.71c2.87,1.79,3.92,4.35,3.29,7.52c-0.3,1.49-1.28,2.36-2.49,3.1c-3.84,2.35-7.97,3.39-12.5,3.12
		c-4.54-0.28-9.1-0.34-13.65-0.53c-0.96-0.04-1.94-0.16-2.86-0.43c-0.94-0.28-1.81-0.8-2.99-1.34c-1.62,1.27-3.6-0.2-5.59-0.29
		c-1.09-0.05-2.17-0.51-3.25-0.79c-2.3-0.59-2.46-0.83-2.32-3.25c0.16-2.63,0.22-5.27,0.44-7.9c0.52-5.96,0.88-11.94,1.77-17.85
		c0.48-3.21,1.89-6.28,2.92-9.41c1.39-4.23,3.02-8.38,2.75-13c-0.17-2.88,0.28-5.81,0.01-8.67c-0.28-3-1.07-5.95-1.65-8.92
		c-1.4-7.12-5.45-13.48-6.15-20.77c-0.33-3.45-0.17-7,0.22-10.46c0.41-3.66,1.2-7.3,2.15-10.87c0.57-2.13,1.69-4.12,2.71-6.1
		c0.26-0.51,1.08-0.91,1.7-1.02c5.34-0.98,10.64-1.15,16.01,0.24c2.28,0.59,4.83,0.28,7.26,0.2c5.54-0.18,10.65,0.95,15.74,3.33
		c4.51,2.11,5.54,10.14,0.95,12.62c-1.41,0.76-2.93,1.51-4.48,1.77c-5.72,0.94-11.49,1.31-17.29,0.87c-1.2-0.09-1.62-0.45-1.7-1.71
		c-0.3-4.6-0.73-9.19-1.17-13.78c-0.04-0.47-0.44-0.91-0.67-1.36c-0.3,0.47-0.8,0.91-0.86,1.41c-0.24,1.96-0.26,3.95-0.5,5.91
		c-0.32,2.58-0.52,5.13-1.79,7.59c-1.63,3.14-1.23,6.61-0.34,9.95c1.08,4.04,0.86,8.18,0.69,12.26c-0.24,5.89,0.86,11.62,1.47,17.41
		c0.69,6.5,1.3,13,1.95,19.5c0.11,1.06,0.18,2.12,0.34,3.17c0.05,0.34,0.31,0.66,0.48,0.98
		C656.25,129.14,656.38,129.12,656.51,129.1z"/>
	<path class="st0" d="M576.3,56.5c-0.08-1.39-0.24-3.04-0.24-4.7c0-0.34,0.47-0.91,0.83-1c4.17-1.15,8.44-1.63,12.76-1.64
		c2.17-0.01,4.34-0.13,6.5-0.1c1.41,0.02,2.82,0.24,4.23,0.38c3.66,0.37,7.31,0.75,10.97,1.12c1.99,0.2,4,0.28,5.97,0.61
		c1.54,0.25,3.05,0.73,4.54,1.22c1.61,0.52,0.81,1.88,0.76,2.87c-0.02,0.43-0.7,1.08-1.17,1.17c-4.38,0.88-8.78,1.63-13.15,2.52
		c-0.44,0.09-1.03,0.83-1.08,1.32c-0.75,7.51-1.54,15.02-2.08,22.55c-0.4,5.61-0.35,11.26-0.68,16.87c-0.18,3.02-0.7,6.02-1.14,9.02
		c-0.56,3.86-1.07,7.74-1.79,11.57c-1,5.29-0.94,10.58-0.49,15.91c0.3,3.58,0.68,7.16,0.8,10.75c0.2,6.08,0.22,12.16,0.3,18.24
		c0.01,0.56,0,1.12-0.04,1.67c-0.18,2.17-1.34,3.11-3.5,2.88c-1.6-0.17-3.2-0.31-4.8-0.49c-0.65-0.07-1.3-0.24-1.95-0.33
		c-1.25-0.18-1.63-0.81-1.78-2.13c-0.35-2.94-1.02-5.85-1.64-8.75c-0.48-2.27-1.32-4.48-1.58-6.76c-0.2-1.77,0.61-3.66,0.38-5.42
		c-0.73-5.58,0.72-11.07,0.46-16.61c-0.11-2.28-0.32-4.55-0.36-6.83c-0.07-3.18-0.06-6.37-0.02-9.55c0.03-2.27,0.31-4.56,0.2-6.82
		c-0.13-2.67-0.53-5.33-0.88-7.99c-0.52-3.96-1.21-7.91-1.61-11.89c-0.55-5.5-1.16-11.01-1.24-16.53c-0.04-3.14,0.89-6.29,1.46-9.42
		c0.06-0.33,0.66-0.54,0.91-0.88c0.27-0.37,0.61-0.84,0.59-1.24c-0.02-0.33-0.51-0.89-0.83-0.91
		C582.84,56.91,579.77,56.73,576.3,56.5z"/>
	<path class="st0" d="M458.12,141.83c-4.15-0.28-7.81-1.54-9.98-5.51c-0.22-0.4-0.41-0.98-0.29-1.39c0.92-3.31,1.89-6.6,2.91-9.88
		c0.12-0.39,0.59-0.89,0.95-0.94c5.56-0.8,11.12-0.89,16.64,0.26c3.82,0.8,4.89,2.78,3.7,6.58c-0.73,2.32-1.56,4.6-2.28,6.92
		c-0.29,0.92-0.79,1.39-1.73,1.67c-1.64,0.49-3.18,1.36-4.84,1.76C461.57,141.68,459.86,141.66,458.12,141.83z"/>
</g>
<g id="Layer_2_copy_xA0_Image_1_">
</g>
<g id="Layer_3">
</g>
</svg>
