<?xml version="1.0" encoding="UTF-8"?>
<svg width="152px" height="152px" viewBox="0 0 152 152" version="1.1" xmlns="http://www.w3.org/2000/svg" xmlns:xlink="http://www.w3.org/1999/xlink">
    <!-- Generator: Sketch 61.2 (89653) - https://sketch.com -->
    <title>darkmode</title>
    <desc>Created with Sketch.</desc>
    <g id="Page-1" stroke="none" stroke-width="1" fill="none" fill-rule="evenodd">
        <g id="darkmode" fill="#000000">
            <path d="M76,0 C117.973641,0 152,34.026359 152,76 C152,117.973641 117.973641,152 76,152 C34.026359,152 0,117.973641 0,76 C0,34.026359 34.026359,0 76,0 Z M76,30.9268019 C51.4233286,30.9268019 31.5,50.8501305 31.5,75.4268019 C31.5,100.003473 51.4233286,119.926802 76,119.926802 C100.576671,119.926802 120.5,100.003473 120.5,75.4268019 C120.5,50.8501305 100.576671,30.9268019 76,30.9268019 Z M76,39.9268019 C95.6061086,39.9268019 111.5,55.8206933 111.5,75.4268019 C111.5,95.0329105 95.6061086,110.926802 76,110.926802 L76,110.926802 Z" id="Combined-Shape"></path>
        </g>
    </g>
</svg>