<?xml version="1.0" encoding="UTF-8"?>
<svg width="153px" height="152px" viewBox="0 0 153 152" version="1.1" xmlns="http://www.w3.org/2000/svg" xmlns:xlink="http://www.w3.org/1999/xlink">
    <!-- Generator: Sketch 61.2 (89653) - https://sketch.com -->
    <title>Group 2</title>
    <desc>Created with Sketch.</desc>
    <g id="Page-1" stroke="none" stroke-width="1" fill="none" fill-rule="evenodd">
        <g id="Group-2" transform="translate(0.426802, 0.000000)">
            <path d="M76,0 C117.973641,0 152,34.026359 152,76 C152,117.973641 117.973641,152 76,152 C34.026359,152 0,117.973641 0,76 C0,34.026359 34.026359,0 76,0 Z M110.705891,39.5609756 L41.8728703,39.5609756 L41.5602253,39.5643977 C33.9726227,39.7306487 27.8728703,45.9334754 27.8728703,53.5609756 L27.8728703,53.5609756 L27.8728703,98.4390244 L27.8762924,98.7516694 C28.0425434,106.339272 34.2453701,112.439024 41.8728703,112.439024 L41.8728703,112.439024 L110.705891,112.439024 L111.018536,112.435602 C118.606139,112.269351 124.705891,106.066525 124.705891,98.4390244 L124.705891,98.4390244 L124.705891,53.5609756 L124.702469,53.2483306 C124.536218,45.660728 118.333391,39.5609756 110.705891,39.5609756 L110.705891,39.5609756 Z M116.70587,54.7359756 L116.705891,98.4390244 L116.701753,98.6639627 C116.583463,101.87345 113.944288,104.439024 110.705891,104.439024 L110.705891,104.439024 L41.8728703,104.439024 L41.6479321,104.434886 C38.4384452,104.316596 35.8728703,101.677421 35.8728703,98.4390244 L35.8728703,98.4390244 L35.8728703,54.8259756 L73.0454735,86.2201436 L73.2269472,86.3656282 C74.8854663,87.6268182 77.2089682,87.587317 78.8265456,86.2419529 L78.8265456,86.2419529 L116.70587,54.7359756 Z M110.705891,47.5609756 C110.883095,47.5609756 111.058504,47.5686575 111.231804,47.5837065 L111.231804,47.5837065 L75.9707805,76.9099756 L41.2571651,47.5921809 C41.4595923,47.5715468 41.6649968,47.5609756 41.8728703,47.5609756 L41.8728703,47.5609756 Z" id="Combined-Shape" fill="#000000"></path>
            <g id="email" transform="translate(27.048780, 39.560976)"></g>
        </g>
    </g>
</svg>